HIERARCHY
ROOT joint_Root
{
	OFFSET 0.0 0.0 0.0
	CHANNELS 6 Xposition Yposition Zposition Zrotation Xrotation Yrotation 
	JOINT Hips
	{
		OFFSET 4.5925 91.4895 -427.239
		CHANNELS 6 Xposition Yposition Zposition Zrotation Xrotation Yrotation 
		JOINT Spine
		{
			OFFSET 15.7357 0.0 0.0
			CHANNELS 6 Xposition Yposition Zposition Zrotation Xrotation Yrotation 
			JOINT Chest
			{
				OFFSET 8.98455 -0.406207 0.0
				CHANNELS 6 Xposition Yposition Zposition Zrotation Xrotation Yrotation 
				JOINT Neck
				{
					OFFSET 16.3773 0.0 0.0
					CHANNELS 6 Xposition Yposition Zposition Zrotation Xrotation Yrotation 
					JOINT Head
					{
						OFFSET 6.45672 0.0 0.0
						CHANNELS 6 Xposition Yposition Zposition Zrotation Xrotation Yrotation 
						End Site
						{
							OFFSET 0.0 0.0 0.0
						}
					}
				}
				JOINT Shoulder_L
				{
					OFFSET 12.9942 -0.242716 4.98039
					CHANNELS 6 Xposition Yposition Zposition Zrotation Xrotation Yrotation 
					JOINT UpperArm_L
					{
						OFFSET 5.34809 0.0 0.0
						CHANNELS 6 Xposition Yposition Zposition Zrotation Xrotation Yrotation 
						JOINT LowerArm_L
						{
							OFFSET 24.3286 1.87007e-05 0.0
							CHANNELS 6 Xposition Yposition Zposition Zrotation Xrotation Yrotation 
							JOINT Hand_L
							{
								OFFSET 22.2916 0.0 0.0
								CHANNELS 6 Xposition Yposition Zposition Zrotation Xrotation Yrotation 
								End Site
								{
									OFFSET 0.0 0.0 0.0
								}
							}
						}
					}
				}
				JOINT Shoulder_R
				{
					OFFSET 12.9945 -0.242716 -4.98039
					CHANNELS 6 Xposition Yposition Zposition Zrotation Xrotation Yrotation 
					JOINT UpperArm_R
					{
						OFFSET -5.34813 0.0 0.0
						CHANNELS 6 Xposition Yposition Zposition Zrotation Xrotation Yrotation 
						JOINT LowerArm_R
						{
							OFFSET -24.3289 0.000322201 0.0
							CHANNELS 6 Xposition Yposition Zposition Zrotation Xrotation Yrotation 
							JOINT Hand_R
							{
								OFFSET -22.2915 -0.000108084 0.0
								CHANNELS 6 Xposition Yposition Zposition Zrotation Xrotation Yrotation 
								End Site
								{
									OFFSET 0.0 0.0 0.0
								}
							}
						}
					}
				}
			}
		}
		JOINT UpperLeg_L
		{
			OFFSET -2.19248 -6.46944 0.0
			CHANNELS 6 Xposition Yposition Zposition Zrotation Xrotation Yrotation 
			JOINT LowerLeg_L
			{
				OFFSET 39.0811 0.0 -1.23785e-05
				CHANNELS 6 Xposition Yposition Zposition Zrotation Xrotation Yrotation 
				JOINT Foot_L
				{
					OFFSET 40.9854 0.0 -1.26872e-05
					CHANNELS 6 Xposition Yposition Zposition Zrotation Xrotation Yrotation 
					JOINT Toes_L
					{
						OFFSET 11.7543 0.0 0.0
						CHANNELS 6 Xposition Yposition Zposition Zrotation Xrotation Yrotation 
						End Site
						{
							OFFSET 0.0 0.0 0.0
						}
					}
				}
			}
		}
		JOINT UpperLeg_R
		{
			OFFSET -2.19251 6.46944 0.0
			CHANNELS 6 Xposition Yposition Zposition Zrotation Xrotation Yrotation 
			JOINT LowerLeg_R
			{
				OFFSET -39.0811 -0.00228153 -0.0401928
				CHANNELS 6 Xposition Yposition Zposition Zrotation Xrotation Yrotation 
				JOINT Foot_R
				{
					OFFSET -40.9854 0.0 0.0
					CHANNELS 6 Xposition Yposition Zposition Zrotation Xrotation Yrotation 
					JOINT Toes_R
					{
						OFFSET -11.7543 0.0 0.0
						CHANNELS 6 Xposition Yposition Zposition Zrotation Xrotation Yrotation 
						End Site
						{
							OFFSET 0.0 0.0 0.0
						}
					}
				}
			}
		}
	}
}
MOTION
Frames:	4
Frame Time:	0.0333333
0.000000 0.000000 0.000000 0.000000 0.000000 -0.000000 -227.932000 86.384200 197.097000 -71.567900 88.226200 158.606000 15.735700 0.000005 -0.000001 57.902700 81.148600 -56.161100 8.984550 -0.406207 -0.000000 7.452120 -9.376490 4.097570 16.377300 -0.000001 -0.000001 3.064230 -1.064590 0.878107 6.456720 -0.000001 -0.000000 1.869940 4.075850 2.842490 12.994200 -0.242716 4.980390 -89.476700 -1.852340 -74.241600 5.348090 -0.000007 -0.000001 -52.137600 38.325400 -38.133400 24.328600 0.000019 0.000005 0.146877 -0.075762 -117.659000 22.291600 -0.000001 0.000005 0.444500 5.452690 -4.736800 12.994500 -0.242716 -4.980390 88.927500 3.524010 -73.063800 -5.348130 -0.000001 -0.000004 -58.122900 38.737600 20.716700 -24.328900 0.000322 -0.000009 -12.270600 1.685640 -97.709100 -22.291500 -0.000108 -0.000004 15.100900 5.607690 -11.788600 -2.192480 -6.469440 -0.000000 -174.813000 -10.770300 10.335000 39.081100 -0.000007 -0.000012 -0.020944 0.040975 27.074000 40.985400 -0.000006 -0.000013 3.482980 8.041170 -74.864600 11.754300 -0.000000 0.000003 -0.070933 -0.365788 -31.726900 -2.192510 6.469440 -0.000001 -172.949000 19.145700 139.580000 -39.081100 -0.002282 -0.040193 0.056197 -0.063988 39.590000 -40.985400 0.000008 0.000006 5.184850 7.277260 -55.678000 -11.754300 -0.000006 -0.000006 -0.020139 -0.168057 -23.439500
0.000000 0.000000 0.000000 0.000000 0.000000 -0.000000 -221.347000 85.087100 197.930000 -74.966200 86.878900 162.861000 15.735700 0.000005 -0.000001 57.604200 81.288400 -55.444600 8.984550 -0.406207 -0.000000 7.197950 -9.312970 4.909040 16.377300 -0.000001 -0.000001 1.555640 -1.183580 0.611513 6.456720 -0.000001 -0.000000 1.900330 3.686400 3.038510 12.994200 -0.242716 4.980390 -90.841200 3.042930 -74.547400 5.348090 -0.000007 -0.000001 -58.374100 39.814500 -21.587400 24.328600 0.000019 0.000005 2.636340 -0.987157 -110.565000 22.291600 -0.000001 0.000005 0.975841 5.475640 -5.581730 12.994500 -0.242716 -4.980390 86.804900 10.147600 -72.420900 -5.348130 -0.000001 -0.000004 -53.304700 37.692900 13.498700 -24.328900 0.000322 -0.000009 -15.110400 -0.809728 -87.015000 -22.291500 -0.000108 -0.000004 18.343900 5.629710 -13.333400 -2.192480 -6.469440 -0.000000 -173.123000 -8.727510 10.199900 39.081100 -0.000007 -0.000012 0.010753 -0.015142 35.376000 40.985400 -0.000006 -0.000013 2.481020 8.051740 -69.593200 11.754300 -0.000000 0.000003 -0.223304 -0.682491 -46.012900 -2.192510 6.469440 -0.000001 -173.998000 18.882400 140.215000 -39.081100 -0.002282 -0.040193 -0.302564 0.262014 49.411100 -40.985400 0.000008 0.000006 6.208170 3.906760 -63.755700 -11.754300 -0.000006 -0.000006 -0.006177 -0.072431 -19.521100
0.000000 0.000000 0.000000 0.000000 0.000000 -0.000000 -215.001000 84.538700 198.744000 -49.441800 88.036800 139.175000 15.735700 0.000005 -0.000001 63.064900 81.645400 -60.520200 8.984550 -0.406207 -0.000000 7.352530 -7.550710 5.575620 16.377300 -0.000001 -0.000001 1.565770 -0.756334 0.275003 6.456720 -0.000001 -0.000000 0.873743 2.825150 1.810520 12.994200 -0.242716 4.980390 -91.127500 3.614980 -72.660700 5.348090 -0.000007 -0.000001 -68.812700 37.885200 -6.508830 24.328600 0.000019 0.000005 3.935940 -0.131484 -91.994700 22.291600 -0.000001 0.000005 3.641480 5.469910 -5.417650 12.994500 -0.242716 -4.980390 85.522500 13.941200 -71.994800 -5.348130 -0.000001 -0.000004 -51.238700 38.403000 4.342080 -24.328900 0.000322 -0.000009 -14.653000 -3.257500 -77.737200 -22.291500 -0.000108 -0.000004 23.273400 5.596010 -11.110000 -2.192480 -6.469440 -0.000000 -171.204000 -10.792500 7.366950 39.081100 -0.000007 -0.000012 0.112746 -0.104049 47.296400 40.985400 -0.000006 -0.000013 3.647600 6.908930 -55.526400 11.754300 -0.000000 0.000003 -0.388284 -0.891778 -56.834400 -2.192510 6.469440 -0.000001 -175.627000 13.491900 145.008000 -39.081100 -0.002282 -0.040193 -0.480673 0.349105 54.192800 -40.985400 0.000008 0.000006 4.233430 -0.023783 -70.544600 -11.754300 -0.000006 -0.000006 -0.001227 -0.018575 -17.328500
0.000000 0.000000 0.000000 0.000000 0.000000 -0.000000 -209.649000 84.449600 199.417000 -20.032200 88.250200 111.696000 15.735700 0.000005 -0.000001 71.565800 81.984600 -68.457100 8.984550 -0.406207 -0.000000 7.609840 -5.053710 6.550580 16.377300 -0.000001 -0.000001 1.554230 -1.404750 0.534840 6.456720 -0.000001 -0.000000 0.786629 1.527390 -0.739255 12.994200 -0.242716 4.980390 -90.637400 2.048910 -72.714800 5.348090 -0.000007 -0.000001 -75.135700 34.638200 2.210220 24.328600 0.000019 0.000005 9.503940 2.960480 -72.887400 22.291600 -0.000001 0.000005 6.967290 5.450620 -4.669320 12.994500 -0.242716 -4.980390 85.775200 13.341100 -72.248500 -5.348130 -0.000001 -0.000004 -55.963500 36.825500 0.307384 -24.328900 0.000322 -0.000009 -14.435400 -1.667940 -83.541800 -22.291500 -0.000108 -0.000004 19.618600 5.623870 -12.916000 -2.192480 -6.469440 -0.000000 -171.070000 -9.991560 0.483312 39.081100 -0.000007 -0.000012 0.205955 -0.114257 60.979000 40.985400 -0.000006 -0.000013 3.252110 1.873040 -39.086800 11.754300 -0.000000 0.000003 -0.069587 -0.361756 -31.554600 -2.192510 6.469440 -0.000001 -176.043000 12.907000 150.686000 -39.081100 -0.002282 -0.040193 -0.555992 0.382984 55.595400 -40.985400 0.000008 0.000006 4.138730 -0.325995 -75.524800 -11.754300 -0.000006 -0.000006 -0.000643 -0.010199 -16.988100
